<?xml version="1.0" standalone="no"?>
<!DOCTYPE svg PUBLIC "-//W3C//DTD SVG 20010904//EN"
 "http://www.w3.org/TR/2001/REC-SVG-20010904/DTD/svg10.dtd">
<svg version="1.0" xmlns="http://www.w3.org/2000/svg"
 width="260.000000pt" height="260.000000pt" viewBox="0 0 260.000000 260.000000"
 preserveAspectRatio="xMidYMid meet">
<metadata>
Created by potrace 1.11, written by Peter Selinger 2001-2013
</metadata>
<g transform="translate(0.000000,260.000000) scale(0.100000,-0.100000)"
fill="#000000" stroke="none">
<path d="M1140 2589 c-8 -5 -25 -9 -38 -9 -85 0 -319 -82 -447 -156 -340 -198
-554 -506 -637 -918 -14 -68 -20 -334 -9 -366 5 -14 14 -56 21 -95 76 -415
382 -784 785 -946 102 -40 245 -79 294 -79 16 0 32 -4 35 -8 7 -11 297 -13
311 -2 6 4 32 10 60 14 128 17 313 83 440 158 187 110 353 276 463 463 77 130
162 374 162 464 0 16 4 32 9 35 11 7 12 296 1 311 -4 6 -10 33 -14 61 -22 177
-122 408 -244 568 -202 263 -470 425 -826 498 -66 14 -348 19 -366 7z m290
-209 c7 -13 21 -20 40 -20 19 0 33 -7 40 -20 7 -13 21 -20 40 -20 19 0 33 -7
40 -20 7 -13 21 -20 40 -20 19 0 34 -7 42 -20 8 -12 24 -20 40 -20 17 0 33 -8
40 -20 7 -11 23 -20 35 -20 32 0 53 -10 53 -26 0 -8 10 -14 24 -14 34 0 56
-10 56 -25 0 -7 18 -15 40 -19 24 -4 40 -12 40 -20 0 -8 16 -16 40 -20 25 -4
40 -12 40 -20 0 -9 16 -17 40 -21 23 -4 40 -12 40 -20 0 -7 16 -16 36 -19 19
-4 44 -16 55 -27 10 -10 28 -19 40 -19 12 0 32 -10 45 -22 l24 -23 0 -583 c0
-566 -1 -584 -19 -589 -11 -3 -21 -13 -24 -24 -3 -10 -12 -19 -20 -19 -8 0
-17 -8 -20 -19 -3 -12 -17 -21 -41 -25 -20 -4 -36 -13 -36 -20 0 -8 -17 -16
-40 -20 -24 -4 -40 -12 -40 -20 0 -8 -16 -16 -40 -20 -25 -4 -40 -12 -40 -20
0 -9 -16 -17 -40 -21 -23 -4 -40 -12 -40 -20 0 -7 -17 -16 -37 -20 -21 -4 -43
-15 -51 -26 -7 -11 -25 -19 -40 -19 -16 0 -32 -8 -40 -20 -7 -12 -23 -20 -40
-20 -16 0 -32 -8 -40 -20 -7 -12 -23 -20 -40 -20 -16 0 -32 -8 -40 -20 -8 -13
-23 -20 -42 -20 -19 0 -33 -7 -40 -20 -7 -13 -21 -20 -40 -20 -19 0 -33 -7
-40 -20 -8 -15 -21 -20 -50 -20 -33 0 -40 -3 -40 -20 0 -18 -7 -20 -79 -20
-71 0 -80 2 -86 20 -4 14 -15 20 -36 20 -17 0 -36 8 -46 20 -10 11 -30 20 -45
20 -17 0 -31 7 -38 20 -7 13 -21 20 -40 20 -19 0 -34 7 -42 20 -8 12 -24 20
-40 20 -17 0 -33 8 -40 20 -7 11 -23 20 -35 20 -13 0 -32 9 -43 20 -11 11 -29
20 -40 20 -11 0 -29 9 -40 20 -11 11 -34 23 -51 27 -17 3 -33 12 -36 19 -3 8
-23 17 -44 20 -23 4 -39 12 -39 20 0 8 -16 16 -40 20 -24 4 -40 12 -40 20 0 8
-16 16 -40 20 -23 4 -40 12 -40 20 0 7 -16 16 -36 20 -24 4 -38 13 -41 25 -3
11 -12 19 -20 19 -8 0 -17 9 -20 19 -3 11 -13 21 -24 24 -18 5 -19 23 -19 589
l0 583 24 23 c13 12 33 22 45 22 11 0 28 8 38 19 10 10 33 22 51 26 18 4 36
13 38 20 3 8 23 16 45 20 22 4 39 12 39 20 0 8 17 16 40 20 23 4 40 12 40 20
0 8 17 16 40 20 23 4 40 12 40 20 0 15 22 25 56 25 14 0 24 6 24 14 0 16 21
26 56 26 14 0 24 6 24 14 0 16 21 26 56 26 14 0 24 6 24 14 0 16 21 26 53 26
12 0 28 9 35 20 8 13 23 20 42 20 19 0 33 7 40 20 7 13 21 20 40 20 19 0 33 7
40 20 10 18 21 20 130 20 109 0 120 -2 130 -20z"/>
<path d="M1235 2353 c-16 -3 -38 -13 -48 -24 -10 -10 -26 -19 -36 -19 -10 0
-28 -9 -41 -20 -13 -11 -31 -20 -40 -20 -9 0 -27 -9 -40 -20 -13 -11 -31 -20
-40 -20 -9 0 -27 -9 -40 -20 -13 -11 -31 -20 -40 -20 -9 0 -27 -9 -40 -20 -13
-11 -31 -20 -40 -20 -9 0 -27 -9 -40 -20 -13 -11 -31 -20 -40 -20 -9 0 -27 -9
-40 -20 -13 -11 -31 -20 -40 -20 -9 0 -27 -9 -39 -19 -12 -10 -37 -22 -55 -25
-19 -4 -37 -13 -40 -21 -3 -8 -14 -15 -24 -15 -11 0 -30 -9 -44 -19 -13 -11
-41 -22 -61 -26 -39 -8 -51 -25 -18 -25 11 0 22 -9 26 -20 4 -12 19 -22 41
-26 20 -4 38 -12 41 -20 2 -7 19 -16 36 -20 18 -3 40 -15 50 -25 10 -11 29
-19 43 -19 13 0 27 -6 30 -14 3 -8 20 -18 37 -22 18 -3 40 -15 50 -25 10 -11
29 -19 42 -19 13 0 28 -8 34 -17 8 -15 30 -19 143 -23 l133 -5 0 -160 0 -160
-162 -3 -163 -2 -2 162 c-3 137 -5 163 -18 163 -13 0 -15 -26 -18 -162 l-2
-163 -159 0 c-87 0 -160 2 -162 4 -2 2 -3 77 -1 165 l3 161 154 0 c131 0 155
2 155 15 0 9 -9 15 -24 15 -35 0 -56 10 -56 26 0 8 -10 14 -24 14 -34 0 -56
10 -56 25 0 8 -17 16 -40 20 -23 4 -40 12 -40 20 0 7 -16 16 -36 19 -19 4 -44
16 -55 27 -10 10 -30 19 -44 19 -18 0 -25 5 -25 20 0 30 -27 24 -33 -7 -8 -40
-9 -1072 -1 -1112 4 -21 14 -36 26 -38 10 -3 18 -11 18 -18 0 -7 16 -16 36
-19 19 -4 44 -16 55 -27 10 -10 29 -19 42 -19 12 0 30 -9 40 -20 9 -11 27 -20
40 -20 12 0 30 -9 40 -20 9 -11 27 -20 40 -20 12 0 30 -9 40 -20 9 -11 28 -20
42 -20 14 0 29 -8 35 -20 7 -13 21 -20 38 -20 15 0 35 -9 45 -20 9 -11 28 -20
42 -20 14 0 29 -8 35 -20 7 -13 21 -20 40 -20 19 0 33 -7 40 -20 7 -13 21 -20
40 -20 19 0 33 -7 40 -20 7 -13 21 -20 40 -20 19 0 34 -7 42 -20 8 -12 24 -20
41 -20 20 0 30 -6 34 -20 3 -11 14 -20 24 -20 18 0 19 16 21 343 l3 342 35 0
35 0 3 -343 c2 -326 3 -342 21 -342 10 0 21 9 24 20 4 15 14 20 36 20 20 0 31
5 31 14 0 16 21 26 56 26 14 0 24 6 24 14 0 16 21 26 53 26 12 0 28 9 35 20 8
13 23 20 42 20 19 0 33 7 40 20 6 12 21 20 35 20 14 0 33 9 42 20 10 11 28 20
40 20 12 0 30 8 40 19 10 10 32 22 50 25 17 4 34 14 37 22 3 8 17 14 30 14 14
0 33 8 43 19 10 10 32 22 50 25 17 4 34 13 36 20 3 8 21 16 40 20 19 4 38 13
41 21 3 9 19 15 42 15 27 0 37 5 41 20 3 11 14 20 24 20 18 0 19 19 19 590 0
518 -2 590 -15 590 -8 0 -15 -9 -15 -19 0 -15 -10 -21 -40 -26 -23 -4 -40 -12
-40 -20 0 -8 -17 -16 -40 -20 -23 -4 -40 -12 -40 -20 0 -8 -17 -16 -40 -20
-23 -4 -40 -12 -40 -20 0 -15 -22 -25 -56 -25 -14 0 -24 -6 -24 -14 0 -16 -21
-26 -56 -26 -15 0 -24 -6 -24 -15 0 -8 -11 -17 -25 -21 l-25 -6 0 -159 0 -159
-162 2 -163 3 0 160 0 160 126 3 c111 2 129 5 144 22 10 11 28 20 41 20 13 0
31 8 41 19 10 10 32 22 50 25 17 4 34 13 36 20 3 8 21 16 40 20 19 4 37 13 40
20 3 7 21 16 40 20 19 4 37 13 40 20 3 7 21 16 40 20 23 4 37 13 40 26 3 12
14 20 26 20 39 0 21 19 -24 26 -28 4 -45 11 -45 20 0 7 -16 16 -36 20 -19 4
-38 12 -41 20 -2 7 -19 16 -36 20 -18 3 -43 15 -56 25 -13 11 -30 19 -38 19
-8 0 -26 9 -40 20 -14 11 -35 20 -47 20 -12 0 -29 9 -39 20 -9 11 -27 20 -40
20 -12 0 -30 9 -40 20 -9 11 -27 20 -40 20 -12 0 -30 9 -40 20 -9 11 -28 20
-42 20 -14 0 -29 8 -35 20 -6 11 -21 20 -34 20 -13 0 -33 9 -46 20 -13 11 -33
20 -45 20 -13 0 -29 9 -36 20 -11 15 -29 20 -79 24 -36 2 -78 2 -95 -1z m227
-690 c2 -5 2 -79 0 -166 l-3 -157 -162 2 -162 3 -1 155 c0 85 2 158 4 163 2 4
75 7 162 7 87 0 160 -3 162 -7z m-734 -525 l-3 -161 -151 0 c-84 0 -156 3
-160 6 -5 3 -8 75 -6 161 l3 156 160 0 159 0 -2 -162z m367 -3 l0 -160 -160 0
-160 0 -3 163 -2 162 162 -2 163 -3 0 -160z m363 3 l-3 -163 -150 -1 c-82 -1
-155 2 -160 7 -8 6 -13 300 -6 317 1 1 73 2 161 2 l160 0 -2 -162z m370 0 l-3
-163 -160 0 -160 0 -3 163 -2 162 165 0 165 0 -2 -162z m363 2 c0 -85 -1 -158
-1 -162 0 -3 -71 -5 -157 -5 l-158 2 -5 158 c-3 87 -3 161 -1 163 3 3 76 3
164 2 l159 -3 -1 -155z"/>
<path d="M1184 1621 c-2 -2 -4 -58 -4 -123 l0 -119 38 3 c35 3 37 5 42 43 5
38 7 40 40 40 33 0 35 -2 40 -40 5 -38 7 -40 40 -40 33 0 35 2 38 36 2 30 -1
37 -17 42 -27 7 -27 34 -1 42 18 6 21 14 18 62 l-3 56 -113 1 c-63 1 -116 -1
-118 -3z m151 -76 c0 -39 -1 -40 -37 -43 -38 -3 -38 -3 -38 36 0 47 6 54 45
50 28 -3 30 -6 30 -43z"/>
<path d="M450 1140 l0 -120 121 0 120 0 -3 38 -3 37 -55 1 -55 1 -3 41 -3 42
61 0 61 0 -3 38 -3 37 -117 3 -118 3 0 -121z"/>
<path d="M817 1254 c-4 -4 -7 -58 -7 -121 l0 -113 39 0 c39 0 40 1 43 38 3 36
4 37 43 37 39 0 40 -1 40 -35 0 -34 1 -35 40 -35 36 0 40 3 41 25 2 36 -6 50
-27 50 -28 0 -23 29 7 40 23 9 25 14 22 62 l-3 53 -116 3 c-63 1 -118 -1 -122
-4z m158 -74 c0 -34 -1 -35 -42 -38 l-43 -3 0 41 0 41 43 -3 c41 -3 42 -4 42
-38z"/>
<path d="M1180 1140 l0 -120 40 0 40 0 0 40 0 40 40 0 40 0 0 -40 0 -40 40 0
40 0 0 120 0 120 -120 0 -120 0 0 -120z m160 40 l0 -40 -40 0 -40 0 0 40 0 40
40 0 40 0 0 -40z"/>
<path d="M1547 1254 c-4 -4 -7 -58 -7 -121 l0 -113 39 0 c39 0 40 1 43 38 3
35 5 37 43 42 57 7 55 34 -3 38 -34 3 -43 7 -40 20 3 14 18 18 83 22 l80 5 0
35 0 35 -116 3 c-63 1 -118 -1 -122 -4z"/>
<path d="M1910 1220 l0 -40 40 0 40 0 0 -80 0 -80 40 0 40 0 0 80 0 80 40 0
40 0 0 40 0 40 -120 0 -120 0 0 -40z"/>
<path d="M454 1621 c-2 -2 -4 -58 -4 -123 l0 -118 96 0 c86 0 96 2 101 19 3
11 13 21 24 24 17 4 19 15 19 81 0 62 -3 76 -15 76 -9 0 -19 10 -24 22 -7 20
-15 22 -100 22 -51 1 -95 -1 -97 -3z m113 -50 c3 -11 13 -21 24 -24 14 -4 19
-14 19 -42 0 -28 -5 -38 -19 -42 -11 -3 -21 -13 -24 -24 -3 -10 -12 -19 -21
-19 -13 0 -16 14 -16 85 0 71 3 85 16 85 9 0 18 -9 21 -19z"/>
<path d="M854 1621 c-11 -12 -2 -31 16 -31 23 0 22 5 25 -88 2 -70 1 -74 -22
-83 -49 -18 -20 -34 62 -34 83 0 110 16 61 35 -25 9 -26 13 -26 85 0 73 1 76
27 86 43 16 13 31 -67 33 -39 1 -73 -1 -76 -3z"/>
<path d="M1545 1621 c-11 -10 -4 -71 8 -72 6 -1 26 -2 42 -3 l30 -1 3 -83 3
-83 36 3 37 3 0 80 1 80 30 1 c57 2 56 2 53 41 l-3 37 -118 1 c-65 1 -120 -1
-122 -4z"/>
</g>
</svg>
